<svg width="44" height="50" viewBox="0 0 44 50" fill="none" xmlns="http://www.w3.org/2000/svg">
<path d="M13.6813 4.96875C10.705 5.78901 7.74891 6.68094 4.81564 7.64375C4.5478 7.73051 4.3097 7.89076 4.12848 8.10623C3.94726 8.32171 3.83021 8.58375 3.79064 8.8625C2.05939 21.8531 6.05939 31.3313 10.8313 37.575C12.8516 40.245 15.2607 42.5971 17.9781 44.5531C19.0594 45.3156 20.0156 45.8656 20.7688 46.2187C21.1438 46.3969 21.45 46.5156 21.6844 46.5875C21.7869 46.6235 21.8926 46.6496 22 46.6656C22.1062 46.6484 22.2107 46.6222 22.3125 46.5875C22.55 46.5156 22.8563 46.3969 23.2313 46.2187C23.9813 45.8656 24.9406 45.3125 26.0219 44.5531C28.7393 42.5971 31.1484 40.2449 33.1688 37.575C37.9406 31.3344 41.9406 21.8531 40.2094 8.8625C40.1702 8.58362 40.0533 8.32141 39.872 8.10587C39.6907 7.89034 39.4524 7.73019 39.1844 7.64375C37.15 6.97813 33.7156 5.89375 30.3188 4.97187C26.85 4.03125 23.6594 3.33438 22 3.33438C20.3438 3.33438 17.15 4.03125 13.6813 4.97187V4.96875ZM12.85 1.75C16.2406 0.828125 19.8438 0 22 0C24.1563 0 27.7594 0.828125 31.15 1.75C34.6188 2.6875 38.1156 3.79687 40.1719 4.46875C41.0316 4.75266 41.7938 5.27333 42.3709 5.97094C42.948 6.66855 43.3166 7.51481 43.4344 8.4125C45.2969 22.4031 40.975 32.7719 35.7313 39.6313C33.5076 42.5656 30.8562 45.1495 27.8656 47.2969C26.8315 48.0399 25.7359 48.6933 24.5906 49.25C23.7156 49.6625 22.775 50 22 50C21.225 50 20.2875 49.6625 19.4094 49.25C18.2641 48.6934 17.1685 48.0399 16.1344 47.2969C13.1439 45.1495 10.4925 42.5655 8.26877 39.6313C3.02502 32.7719 -1.29686 22.4031 0.565642 8.4125C0.683415 7.51481 1.05203 6.66855 1.62913 5.97094C2.20624 5.27333 2.96843 4.75266 3.82814 4.46875C6.81312 3.49003 9.82128 2.58351 12.85 1.75V1.75Z" fill="#A8A7AB"/>
</svg>
