<svg width="42" height="42" viewBox="0 0 42 42" fill="none" xmlns="http://www.w3.org/2000/svg">
<path fill-rule="evenodd" clip-rule="evenodd" d="M2.77778 4.33329C2.77778 3.96494 2.92411 3.61167 3.18457 3.3512C3.44504 3.09073 3.79831 2.9444 4.16667 2.9444H11.1111V0.166626H4.16667C3.0616 0.166626 2.00179 0.605612 1.22039 1.38701C0.438987 2.16842 0 3.22822 0 4.33329V37.6666C0 38.7717 0.438987 39.8315 1.22039 40.6129C2.00179 41.3943 3.0616 41.8333 4.16667 41.8333H32.2986C31.7063 40.9849 31.2538 40.0471 30.9583 39.0555H4.16667C3.79831 39.0555 3.44504 38.9092 3.18457 38.6487C2.92411 38.3883 2.77778 38.035 2.77778 37.6666V4.33329ZM38.8889 26.6527C39.8101 26.521 40.7454 26.521 41.6667 26.6527V4.33329C41.6667 3.22822 41.2277 2.16842 40.4463 1.38701C39.6649 0.605612 38.6051 0.166626 37.5 0.166626H33.3333V2.9444H37.5C37.8684 2.9444 38.2216 3.09073 38.4821 3.3512C38.7426 3.61167 38.8889 3.96494 38.8889 4.33329V26.6527ZM13.8889 2.9444H28.5597V0.166626H13.8889V2.9444Z" fill="#A8A7AB"/>
</svg>
