<svg width="46" height="46" viewBox="0 0 46 46" fill="none" xmlns="http://www.w3.org/2000/svg">
<path d="M39.5372 14.6667H41.7497C42.8547 14.6667 43.9146 15.1056 44.696 15.8871C45.4774 16.6685 45.9163 17.7283 45.9163 18.8333V27.1667C45.9163 28.2717 45.4774 29.3315 44.696 30.1129C43.9146 30.8943 42.8547 31.3333 41.7497 31.3333H39.5372C39.0293 35.361 37.069 39.065 34.0242 41.75C30.9793 44.435 27.0593 45.9166 22.9997 45.9167V41.75C26.3149 41.75 29.4943 40.433 31.8385 38.0888C34.1827 35.7446 35.4997 32.5652 35.4997 29.25V16.75C35.4997 13.4348 34.1827 10.2554 31.8385 7.91116C29.4943 5.56696 26.3149 4.25 22.9997 4.25C19.6845 4.25 16.505 5.56696 14.1608 7.91116C11.8166 10.2554 10.4997 13.4348 10.4997 16.75V31.3333H4.24967C3.14461 31.3333 2.0848 30.8943 1.3034 30.1129C0.521995 29.3315 0.0830078 28.2717 0.0830078 27.1667V18.8333C0.0830078 17.7283 0.521995 16.6685 1.3034 15.8871C2.0848 15.1056 3.14461 14.6667 4.24967 14.6667H6.46217C6.97057 10.6394 8.93109 6.93598 11.9759 4.2514C15.0206 1.56683 18.9404 0.0855713 22.9997 0.0855713C27.0589 0.0855713 30.9787 1.56683 34.0235 4.2514C37.0683 6.93598 39.0288 10.6394 39.5372 14.6667V14.6667ZM4.24967 18.8333V27.1667H6.33301V18.8333H4.24967ZM39.6663 18.8333V27.1667H41.7497V18.8333H39.6663ZM14.1663 30.8854L16.3747 27.3521C18.3603 28.5959 20.6567 29.2538 22.9997 29.25C25.3427 29.2538 27.6391 28.5959 29.6247 27.3521L31.833 30.8854C29.1856 32.544 26.1237 33.4215 22.9997 33.4167C19.8756 33.4215 16.8137 32.544 14.1663 30.8854Z" fill="#A8A7AB"/>
</svg>
